<svg width="96" height="86" xmlns="http://www.w3.org/2000/svg" xmlns:xlink="http://www.w3.org/1999/xlink" xml:space="preserve" overflow="hidden"><g transform="translate(-590 -317)"><path d="M114.969 133.92 68.1811 133.92C57.7148 133.92 49.23 125.435 49.23 114.969L49.23 68.1811C49.23 57.7148 57.7148 49.23 68.1811 49.23L114.969 49.23C125.435 49.23 133.92 57.7148 133.92 68.1811L133.92 114.969C133.92 125.435 125.435 133.92 114.969 133.92Z" stroke="#00B8C9" stroke-width="1.32718" stroke-linecap="round" stroke-linejoin="round" stroke-miterlimit="10" fill="none" transform="matrix(1.0046 0 0 1 547.606 268.421)"/><path d="M91.5751 76.8746 91.5751 106.276" stroke="#00B8C9" stroke-width="1.32718" stroke-linecap="round" stroke-linejoin="round" stroke-miterlimit="10" fill="none" transform="matrix(1.0046 0 0 1 547.606 268.421)"/><path d="M76.8746 91.5751 106.276 91.5751" stroke="#00B8C9" stroke-width="1.32718" stroke-linecap="round" stroke-linejoin="round" stroke-miterlimit="10" fill="none" transform="matrix(1.0046 0 0 1 547.606 268.421)"/></g></svg>