<svg width="40" height="40" xmlns="http://www.w3.org/2000/svg" xmlns:xlink="http://www.w3.org/1999/xlink" xml:space="preserve" overflow="hidden"><defs><clipPath id="clip0"><rect x="620" y="340" width="40" height="40"/></clipPath></defs><g clip-path="url(#clip0)" transform="translate(-620 -340)"><path d="M31.6695 37.1571 2.26484 37.1571C0.89527 37.1571 0.000101578 36.1962 0.000101578 35.0276L0.000101578 12.3873C0.000101578 10.9831 0.860598 9.92026 2.26484 9.92026L20.3267 9.92026 20.3267 14.4103 4.48871 14.4102 4.48871 32.6965 29.2635 32.6965 29.2636 25.7357 34.1353 25.7324 34.1353 35.0271C34.1353 36.1962 33.0044 37.1571 31.6698 37.1571Z" fill="#010101" transform="matrix(1 0 0 1.17199 620 336.506)"/><path d="M6.72206 30.669 16.1681 21.5974 20.4117 25.5708 24.9759 19.5716 27.2122 23.8528 27.228 30.669Z" fill="#010101" transform="matrix(1 0 0 1.17199 620 336.506)"/><path d="M11.396 21.5314C10.1084 21.5314 9.06207 20.4852 9.06207 19.1971 9.06207 17.9062 10.1082 16.8604 11.396 16.8604 12.6873 16.8604 13.733 17.9062 13.733 19.1971 13.7332 20.4852 12.6872 21.5314 11.396 21.5314Z" fill="#010101" transform="matrix(1 0 0 1.17199 620 336.506)"/><path d="M34.147 12.3887 34.147 21.3364 29.2469 21.3364 29.2404 12.3887 22.8011 12.3887 31.7155 3.4726 40.6303 12.3887Z" fill="#010101" transform="matrix(1 0 0 1.17199 620 336.506)"/></g></svg>